<?xml version="1.0" encoding="UTF-8"?>
<svg id="Layer_1" data-name="Layer 1" xmlns="http://www.w3.org/2000/svg" viewBox="0 0 272.84 113.5">
  <defs>
    <style>
      .cls-1 {
        fill: #153c58;
      }
    </style>
  </defs>
  <path class="cls-1" d="m111,7.5v7.5h21V0h-21v7.5Z"/>
  <path class="cls-1" d="m53.9,24.7c-.1,13.1-.4,18.2-.9,15.2-2.2-13.1-10.6-19.3-26-19.3C9.9,20.6.1,28.8,0,43c0,11.6,2.8,15.9,18.9,28.8,10.9,8.7,12.2,10.5,12.3,17.2,0,5.3-1.6,8-4.7,8-3.4,0-4.8-2.8-5.3-10.3l-.5-7.7H0v7.6c0,4.2.5,9.4,1.2,11.5,1.6,5.7,7,11.4,12.6,13.6,5.7,2.2,18.8,2.4,24.5.4,6.8-2.3,12.5-8.5,14.8-16.1.4-1.6.8,1.1.8,7.2l.1,9.8h23v-36.1c0-22.9.4-36.7,1-38,1.3-2.3,5.3-2.5,7.4-.3,1.4,1.3,1.6,6.2,1.6,38v36.4h22v-37.3c0-41.3-.4-45-6-50.6-6.6-6.6-19-6.2-23.7.8l-2.3,3.4V5h-23l-.1,19.7Zm-25,13.2c.7.5,1.6,2.9,1.8,5.5l.6,4.6h22.7v16.7l-.1,16.8-1.7-5c-2.5-7.2-6.3-11.5-18.3-20.5-11-8.2-11.9-9.3-11.9-13.9,0-4.3,3.4-6.4,6.9-4.2Z"/>
  <path class="cls-1" d="m134,59v54h23v-36.1c0-22.9.4-36.7,1-38,1.3-2.3,5.3-2.5,7.4-.3,1.4,1.3,1.6,6.2,1.6,38v36.4h22v-37.3c0-41.3-.4-45-6-50.6-6.6-6.6-19-6.2-23.7.8l-2.3,3.4V5h-23v54Z"/>
  <path class="cls-1" d="m210.3,21c-5.8,1.2-9.5,3.3-13.3,7.6-6.4,7.3-6.5,8.1-6.5,38.4s.3,32.6,6.2,39.1c4.7,5.2,10.9,7.4,20.8,7.4s16.3-2.2,20.9-7.6c5.5-6.5,6.1-10.3,6.1-39.4,0-24.3-.1-26.3-2.1-30.5-2.9-6.4-6.7-10.4-11.7-12.8-5.2-2.4-14.5-3.4-20.4-2.2Zm10.8,17.7c2,2.3,2.5,51.6.6,55.3-1.7,3.4-6,3.9-8.1.8-2.4-3.3-2.4-52.2,0-55.6,1.8-2.6,5.6-2.9,7.5-.5Z"/>
  <path class="cls-1" d="m111,67v46h21V21h-21v46Z"/>
  <path class="cls-1" d="m252.1,90.6c-6.4,5.4-6,15.5.9,20.2,7.7,5.2,18.5.5,19.7-8.5,1.1-8.2-4.5-14.3-13-14.3-3.4,0-5.3.6-7.6,2.6Z"/>
</svg>