<?xml version="1.0" encoding="UTF-8"?>
<svg id="Layer_1" data-name="Layer 1" xmlns="http://www.w3.org/2000/svg" viewBox="0 0 97 115.45">
  <defs>
    <style>
      .cls-1 {
        fill: #153c58;
      }
    </style>
  </defs>
  <path class="cls-1" d="m17.7.54C5.3,3.64-.9,13.84.2,29.64c.6,9.6,3.6,14.7,16.5,28,6.2,6.4,12,13.2,12.8,15.2,1.8,4.3,2,13.8.3,15.5-1.9,1.9-6.6,1.5-7.8-.7-.5-1.1-1-5.8-1-10.5v-8.6H0v9.3c0,15.9,3.8,24.5,12.7,28.8,3.9,1.9,6.4,2.3,13.8,2.3,13,0,18.1-2.9,22.7-12.9,2-4.4,2.3-6.6,2.3-17.5,0-16.3-1.1-18.7-15.8-33.5-12.2-12.3-15.7-16.7-15.7-20.1,0-2.9,2.5-5.4,5.5-5.4s4.5,2.6,4.5,7.9v4.1h22.2l-.7-5.3C49.2,8.04,43.2,1.54,27,.14c-3-.3-7.2-.1-9.3.4Z"/>
  <path class="cls-1" d="m75.4,93.94c-2.9,2.9-3.4,4.1-3.4,8.2,0,9.2,6.4,14.7,15.3,13,5.1-1,9.7-6.5,9.7-11.7,0-8.3-4.7-12.9-13.1-12.9-4.5,0-5.5.4-8.5,3.4Z"/>
</svg>